<svg class="logo" data-name="Layer 1" xmlns="http://www.w3.org/2000/svg" viewBox="0 0 567.95 659.27"><path d="M23,246.72l53.91,55.14L84.62,296c0-30.17-.64-60.37.47-90.5.27-7.23,4.41-17.5,10.06-20.87q99-59.16,199.41-115.9c7-3.93,20.48-2.59,28,1.61q94.44,53,187.33,108.74c8.22,5,15.86,17.55,16.53,27.11,2.12,29.94.78,60.11.78,97,22.61-24.37,40.65-43.84,60.76-65.53.73,8,1.71,13.87,1.71,19.69.1,101.78-.17,203.56.36,305.34.07,13.49-3.79,20.3-16.35,26.79-78.62,40.69-157.95,80.35-234,125.43-28.29,16.76-45.71,12.18-71-2.13-74.53-42.16-151.08-80.75-226.1-122.08-9.13-5-19.42-18.21-19.55-27.74-1.36-104.17-.81-208.36-.71-312.54C22.25,248.24,23.09,246,23,246.72Zm37.63,85.15c0,71.88-.27,143.2.48,214.5.06,6.17,5.38,15.07,10.8,18,72.83,38.93,145.91,77.42,219.59,114.73,8.15,4.13,21.94,3.55,30.42-.51,35.45-17,69.94-35.94,104.65-54.43,38-20.24,76-40.48,113.59-61.5,5-2.8,10.57-10.11,10.63-15.39.7-70.13.47-140.26.47-210.35C386.32,418.71,224.66,405.65,60.58,331.87ZM305.46,212.81,226.93,349.53H383.87C358.26,304.87,333.23,261.22,305.46,212.81Zm33.79-14.67,85.9,147.64,56.36-130.5Zm-68.13.46L129.63,215,186,345.34Zm14.3-83.89L197.85,166.4l1.66,4,85.91-11.73Zm40.87,44,85.93,11.48,1.19-3.5-87.12-51.09Z" transform="translate(-22.05 -66.39)"/></svg>